# xmcd
#
# Track frame offsets:
#	190
#	8290
#	37840
#	47215
#	84265
#	104265
#	119065
#	135565
#	164665
#
# Disc length: 2348 seconds
# Revision: 3
# Processed by: cddbd v1.5.2PL0 Copyright (c) Steve Scherf et al.
# Submitted via: dBpowerAMP V12.0
#
DISCID=68092a09
DTITLE=Mark O'Connor - Markology
DYEAR=1978
DGENRE=Country
TTITLE0=Dixie Breakdown (Don Reno)
TTITLE1=Markology (Mark O'Connor)
TTITLE2=Kit's Waltz (Tim O'Brien)
TTITLE3=Fluid Drive (Mark O'Connor)
TTITLE4=Blackberry Blossom (Traditional)
TTITLE5=Pickin' in the Wind (Mark O'Connor)
TTITLE6=Banks of the Ohio (Traditional)
TTITLE7=Beserkeley (Mark O'Connor)
TTITLE8=On Top of the World
EXTD=
EXTT0=
EXTT1=
EXTT2=
EXTT3=
EXTT4=
EXTT5=
EXTT6=
EXTT7=
EXTT8=
PLAYORDER=
